HIERARCHY
ROOT hip
{
  OFFSET 0.0 0.0 0.0
  CHANNELS 6 Xposition Yposition Zposition Zrotation Yrotation Xrotation
  JOINT abdomen
  {
    OFFSET 0.0 20.6881 -0.73152
    CHANNELS 3 Zrotation Xrotation Yrotation
    JOINT chest
    {
      OFFSET 0.0 11.7043 -0.48768
      CHANNELS 3 Zrotation Xrotation Yrotation
      JOINT neck
      {
        OFFSET 0.0 22.1894 -2.19456
        CHANNELS 3 Zrotation Xrotation Yrotation
        JOINT head
        {
          OFFSET -0.24384 7.07133 1.2192
          CHANNELS 3 Zrotation Xrotation Yrotation
          JOINT leftEye
          {
            OFFSET 4.14528 8.04674 8.04672
            CHANNELS 3 Zrotation Xrotation Yrotation
            End Site
            {
              OFFSET 1.0 0.0 0.0
            }
          }
          JOINT rightEye
          {
            OFFSET -3.6576 8.04674 8.04672
            CHANNELS 3 Zrotation Xrotation Yrotation
            End Site
            {
              OFFSET 1.0 0.0 0.0
            }
          }
        }
      }
      JOINT rCollar
      {
        OFFSET -2.68224 19.2634 -4.8768
        CHANNELS 3 Zrotation Xrotation Yrotation
        JOINT rShldr
        {
          OFFSET -8.77824 -1.95073 1.46304
          CHANNELS 3 Zrotation Xrotation Yrotation
          JOINT rForeArm
          {
            OFFSET -28.1742 -1.7115 0.48768
            CHANNELS 3 Zrotation Xrotation Yrotation
            JOINT rHand
            {
              OFFSET -22.5879 0.773209 7.07136
              CHANNELS 3 Zrotation Xrotation Yrotation
              JOINT rThumb1
              {
                OFFSET -1.2192 -0.487915 3.41376
                CHANNELS 3 Zrotation Xrotation Yrotation
                JOINT rThumb2
                {
                  OFFSET -3.37035 -0.52449 3.41376
                  CHANNELS 3 Zrotation Xrotation Yrotation
                  End Site
                  {
                    OFFSET -1.78271 -1.18214 1.43049
                  }
                }
              }
              JOINT rIndex1
              {
                OFFSET -7.75947 0.938293 5.60832
                CHANNELS 3 Zrotation Xrotation Yrotation
                JOINT rIndex2
                {
                  OFFSET -2.54057 -0.884171 1.56538
                  CHANNELS 3 Zrotation Xrotation Yrotation
                  End Site
                  {
                    OFFSET -1.62519 -0.234802 1.16502
                  }
                }
              }
              JOINT rMid1
              {
                OFFSET -8.24714 1.18213 3.41376
                CHANNELS 3 Zrotation Xrotation Yrotation
                JOINT rMid2
                {
                  OFFSET -3.10165 -0.590103 1.0647
                  CHANNELS 3 Zrotation Xrotation Yrotation
                  End Site
                  {
                    OFFSET -2.48547 -0.328903 0.83742
                  }
                }
              }
              JOINT rRing1
              {
                OFFSET -8.82822 0.546677 1.51678
                CHANNELS 3 Zrotation Xrotation Yrotation
                JOINT rRing2
                {
                  OFFSET -2.60934 -0.819778 -0.0198488
                  CHANNELS 3 Zrotation Xrotation Yrotation
                  End Site
                  {
                    OFFSET -2.33842 -0.294052 0.168128
                  }
                }
              }
              JOINT rPinky1
              {
                OFFSET -8.27202 -0.0477905 -0.4584
                CHANNELS 3 Zrotation Xrotation Yrotation
                JOINT rPinky2
                {
                  OFFSET -1.82734 -0.647385 -0.700984
                  CHANNELS 3 Zrotation Xrotation Yrotation
                  End Site
                  {
                    OFFSET -1.69225 -0.51767 -0.607171
                  }
                }
              }
            }
          }
        }
      }
      JOINT lCollar
      {
        OFFSET 2.68224 19.2634 -4.8768
        CHANNELS 3 Zrotation Xrotation Yrotation
        JOINT lShldr
        {
          OFFSET 8.77824 -1.95073 1.46304
          CHANNELS 3 Zrotation Xrotation Yrotation
          JOINT lForeArm
          {
            OFFSET 28.1742 -1.7115 0.48768
            CHANNELS 3 Zrotation Xrotation Yrotation
            JOINT lHand
            {
              OFFSET 22.5879 0.773209 7.07136
              CHANNELS 3 Zrotation Xrotation Yrotation
              JOINT lThumb1
              {
                OFFSET 1.2192 -0.487915 3.41376
                CHANNELS 3 Zrotation Xrotation Yrotation
                JOINT lThumb2
                {
                  OFFSET 3.37035 -0.52449 3.41376
                  CHANNELS 3 Zrotation Xrotation Yrotation
                  End Site
                  {
                    OFFSET 1.78271 -1.18214 1.43049
                  }
                }
              }
              JOINT lIndex1
              {
                OFFSET 7.75947 0.938293 5.60832
                CHANNELS 3 Zrotation Xrotation Yrotation
                JOINT lIndex2
                {
                  OFFSET 2.54057 -0.884171 1.56538
                  CHANNELS 3 Zrotation Xrotation Yrotation
                  End Site
                  {
                    OFFSET 1.62519 -0.234802 1.16502
                  }
                }
              }
              JOINT lMid1
              {
                OFFSET 8.24714 1.18213 3.41376
                CHANNELS 3 Zrotation Xrotation Yrotation
                JOINT lMid2
                {
                  OFFSET 3.10165 -0.590103 1.0647
                  CHANNELS 3 Zrotation Xrotation Yrotation
                  End Site
                  {
                    OFFSET 2.48547 -0.328903 0.83742
                  }
                }
              }
              JOINT lRing1
              {
                OFFSET 8.82822 0.546677 1.51678
                CHANNELS 3 Zrotation Xrotation Yrotation
                JOINT lRing2
                {
                  OFFSET 2.60934 -0.819778 -0.0198488
                  CHANNELS 3 Zrotation Xrotation Yrotation
                  End Site
                  {
                    OFFSET 2.33842 -0.294052 0.168128
                  }
                }
              }
              JOINT lPinky1
              {
                OFFSET 8.27202 -0.0477905 -0.4584
                CHANNELS 3 Zrotation Xrotation Yrotation
                JOINT lPinky2
                {
                  OFFSET 1.82734 -0.647385 -0.700984
                  CHANNELS 3 Zrotation Xrotation Yrotation
                  End Site
                  {
                    OFFSET 1.69225 -0.51767 -0.607171
                  }
                }
              }
            }
          }
        }
      }
    }
  }
  JOINT rButtock
  {
    OFFSET -8.77824 4.35084 1.2192
    CHANNELS 3 Zrotation Xrotation Yrotation
    JOINT rThigh
    {
      OFFSET 0.0 -1.70687 -2.19456
      CHANNELS 3 Zrotation Xrotation Yrotation
      JOINT rShin
      {
        OFFSET 0.0 -36.8199 0.73152
        CHANNELS 3 Zrotation Xrotation Yrotation
        JOINT rFoot
        {
          OFFSET 0.73152 -45.1104 -5.12064
          CHANNELS 3 Zrotation Xrotation Yrotation
          End Site
          {
            OFFSET -1.1221 -3.69964 12.103
          }
        }
      }
    }
  }
  JOINT lButtock
  {
    OFFSET 8.77824 4.35084 1.2192
    CHANNELS 3 Zrotation Xrotation Yrotation
    JOINT lThigh
    {
      OFFSET 0.0 -1.70687 -2.19456
      CHANNELS 3 Zrotation Xrotation Yrotation
      JOINT lShin
      {
        OFFSET 0.0 -36.8199 0.73152
        CHANNELS 3 Zrotation Xrotation Yrotation
        JOINT lFoot
        {
          OFFSET -0.73152 -45.1104 -5.12064
          CHANNELS 3 Zrotation Xrotation Yrotation
          End Site
          {
            OFFSET 1.1221 -3.69964 12.103
          }
        }
      }
    }
  }
}
MOTION
Frames: 9
Frame Time: 0.00833333
6.885999999999996 83.877 -6.045400000000001 1.1073 79.7704 -1.0559 -0.198283 2.19096 1.29911 -0.374353 0.0915611 0.400668 2.51176 3.57103 0.852501 -2.18043 -5.69926 1.20497 -0.0 0.0 0.0 -0.0 0.0 0.0 -2.22077e-15 6.79735e-13 4.79397e-14 21.1251 1.567 -2.42735 -4.8087 -2.31653 7.36246 0.0551026 -5.21101 -0.721464 -2.19975e-10 -6.90916e-10 1.59462e-10 -3.85235e-10 -1.19429e-09 2.74125e-10 -2.19973e-10 -6.90914e-10 1.59451e-10 7.73091 5.47488 0.417314 -2.19977e-10 -6.90915e-10 1.59467e-10 2.90554 0.965183 0.102902 -2.19971e-10 -6.90915e-10 1.59467e-10 10.2786 0.731801 0.0259123 -2.19984e-10 -6.90912e-10 1.59479e-10 2.22167 -0.733487 -0.20892 -2.46366e-15 6.79739e-13 4.76113e-14 -21.8063 -3.73474 0.160144 4.14992 -1.87171 -6.49974 -0.00517159 1.59557 -0.223929 3.24562e-11 1.21251e-09 6.32723e-10 5.95431e-11 2.10008e-09 1.09474e-09 3.24506e-11 1.21251e-09 6.32732e-10 -7.73091 5.47488 -0.417314 3.24567e-11 1.21251e-09 6.32719e-10 -2.90554 0.965183 -0.102902 3.24503e-11 1.21251e-09 6.32719e-10 -10.2786 0.731801 -0.0259123 3.24597e-11 1.21251e-09 6.32708e-10 -2.22167 -0.733487 0.20892 -2.03217e-16 0.0 -3.88251e-19 2.52315 -5.98262 4.27405 0.0657358 10.0624 0.220862 -2.35018 -7.06242 -9.19358 2.03217e-16 0.0 3.88251e-19 -1.11128 -4.34606 -4.16978 -0.0647223 7.45599 -0.168648 1.85118 -4.59466 8.13857
6.884999999999991 83.877 -6.040399999999998 1.0417 79.7501 -1.1228 -1.052 4.50508 2.66473 -0.922636 0.193835 0.798839 5.05132 7.34501 1.76474 -4.21928 -11.7144 2.5194 -0.0 0.0 0.0 -0.0 0.0 0.0 -6.00689e-15 1.35263e-12 9.57272e-14 43.6033 3.21857 -5.00056 -9.25089 -4.63822 15.1845 -0.0316488 -10.7192 -1.50457 -4.79301e-10 -1.39618e-09 3.10999e-10 -8.38499e-10 -2.41333e-09 5.34392e-10 -4.793e-10 -1.39618e-09 3.10989e-10 7.73091 5.47488 0.417314 -4.79303e-10 -1.39618e-09 3.11005e-10 2.90554 0.965183 0.102902 -4.79296e-10 -1.39618e-09 3.11004e-10 10.2786 0.731801 0.0259123 -4.79308e-10 -1.39618e-09 3.11014e-10 2.22167 -0.733487 -0.20892 -6.30267e-15 1.35263e-12 9.54725e-14 -44.8398 -7.69108 0.331485 8.07874 -3.77027 -13.3936 0.00293781 3.27875 -0.460742 6.02493e-11 2.48844e-09 1.30892e-09 1.11283e-10 4.30995e-09 2.26458e-09 6.02435e-11 2.48844e-09 1.30893e-09 -7.73091 5.47488 -0.417314 6.02506e-11 2.48844e-09 1.30892e-09 -2.90554 0.965183 -0.102902 6.02447e-11 2.48844e-09 1.30892e-09 -10.2786 0.731801 -0.0259123 6.02517e-11 2.48844e-09 1.30891e-09 -2.22167 -0.733487 0.20892 -2.03217e-16 0.0 -3.88251e-19 4.54737 -7.58497 8.9016 0.0670823 18.118 0.483137 -7.56854 -15.8717 -19.6488 2.03217e-16 0.0 3.88251e-19 -2.50504 -6.33503 -8.62925 -0.061728 16.5735 -0.431715 5.89827 -12.7601 17.2557
6.8799999999999955 83.8709 -6.046900000000001 1.2246 79.739 -0.913 -1.91728 6.56637 3.89067 -1.41025 0.285436 1.15292 7.21178 10.7035 2.59777 -5.79449 -17.0668 3.76296 -0.0 0.0 0.0 -0.0 0.0 0.0 -1.13311e-14 2.03923e-12 1.43422e-13 63.7737 4.66721 -7.30369 -12.6797 -6.49158 22.2192 -0.24114 -15.6229 -2.23817 -7.03396e-10 -2.07243e-09 4.7803e-10 -1.23076e-09 -3.58232e-09 8.2175e-10 -7.03396e-10 -2.07243e-09 4.78021e-10 7.73091 5.47488 0.417314 -7.03398e-10 -2.07243e-09 4.78037e-10 2.90554 0.965183 0.102902 -7.0339e-10 -2.07243e-09 4.78035e-10 10.2786 0.731801 0.0259123 -7.03401e-10 -2.07243e-09 4.78043e-10 2.22167 -0.733487 -0.20892 -1.16678e-14 2.03924e-12 1.43231e-13 -65.3552 -11.2039 0.488725 11.1985 -5.32667 -19.5767 0.0220117 4.78643 -0.673877 5.38953e-11 3.63778e-09 1.89779e-09 1.03513e-10 6.30068e-09 3.28355e-09 5.38894e-11 3.63778e-09 1.89779e-09 -7.73091 5.47488 -0.417314 5.38973e-11 3.63778e-09 1.89778e-09 -2.90554 0.965183 -0.102902 5.38918e-11 3.63778e-09 1.89778e-09 -10.2786 0.731801 -0.0259123 5.38969e-11 3.63778e-09 1.89778e-09 -2.22167 -0.733487 0.20892 -2.03217e-16 0.0 -3.88251e-19 6.56402 -8.94121 13.0591 -0.000930888 25.3067 0.746524 -15.0806 -22.3551 -30.0152 2.03217e-16 0.0 3.88251e-19 -4.02285 -8.03371 -12.6459 0.0189647 24.6985 -0.697445 11.7888 -19.1071 26.1248
6.877999999999986 83.8694 -6.059999999999995 1.5988 79.7251 -0.5216 -2.60153 8.00835 4.7458 -1.7435 0.350404 1.39675 8.65466 13.0324 3.19436 -6.74734 -20.7918 4.68878 -0.0 0.0 0.0 -0.0 0.0 0.0 -2.05005e-14 2.76012e-12 1.90883e-13 77.8914 5.64099 -8.9107 -14.791 -7.61078 27.1595 -0.465532 -19.0249 -2.77767 -8.39415e-10 -2.67615e-09 6.83797e-10 -1.47051e-09 -4.62619e-09 1.17684e-09 -8.39416e-10 -2.67614e-09 6.83787e-10 7.73091 5.47488 0.417314 -8.39417e-10 -2.67615e-09 6.83803e-10 2.90554 0.965183 0.102902 -8.39409e-10 -2.67615e-09 6.83801e-10 10.2786 0.731801 0.0259123 -8.39419e-10 -2.67614e-09 6.83807e-10 2.22167 -0.733487 -0.20892 -2.08481e-14 2.76013e-12 1.90734e-13 -79.6205 -13.6081 0.602763 13.1691 -6.30256 -23.9088 0.0422393 5.85565 -0.825864 -3.78264e-11 4.47062e-09 2.26832e-09 -5.3031e-11 7.74356e-09 3.92538e-09 -3.78323e-11 4.47062e-09 2.26832e-09 -7.73091 5.47488 -0.417314 -3.78242e-11 4.47062e-09 2.26832e-09 -2.90554 0.965183 -0.102902 -3.78295e-11 4.47061e-09 2.26832e-09 -10.2786 0.731801 -0.0259123 -3.78251e-11 4.47061e-09 2.26831e-09 -2.22167 -0.733487 0.20892 -2.03217e-16 0.0 -3.88251e-19 8.06063 -9.83885 15.969 -0.0942893 30.3293 0.956439 -21.8415 -25.7313 -37.8913 2.03217e-16 0.0 3.88251e-19 -5.25541 -9.15211 -15.4784 0.127202 30.3439 -0.911656 17.1627 -22.7299 32.8497
6.877999999999986 83.8687 -6.069699999999997 1.8803 79.7131 -0.234 -2.93989 8.59236 5.06632 -1.8619 0.377499 1.48611 9.19842 13.9251 3.43148 -7.08637 -22.2608 5.06335 -0.0 0.0 0.0 -0.0 0.0 0.0 -3.89107e-14 3.75998e-12 2.52742e-13 83.411 5.96146 -9.5268 -15.5558 -7.99978 29.0938 -0.57012 -20.3229 -2.99204 -9.02921e-10 -3.35114e-09 1.02492e-09 -1.58608e-09 -5.79323e-09 1.76658e-09 -9.02921e-10 -3.35113e-09 1.02491e-09 7.73091 5.47488 0.417314 -9.02923e-10 -3.35113e-09 1.02493e-09 2.90554 0.965183 0.102902 -9.02914e-10 -3.35113e-09 1.02492e-09 10.2786 0.731801 0.0259123 -9.02923e-10 -3.35113e-09 1.02493e-09 2.22167 -0.733487 -0.20892 -3.92256e-14 3.76e-12 2.52599e-13 -85.1569 -14.4591 0.649818 13.8961 -6.65447 -25.6054 0.0523524 6.3132 -0.891143 -3.06442e-10 5.03998e-09 2.40617e-09 -5.16607e-10 8.7308e-09 4.16584e-09 -3.06448e-10 5.03998e-09 2.40617e-09 -7.73091 5.47488 -0.417314 -3.0644e-10 5.03998e-09 2.40616e-09 -2.90554 0.965183 -0.102902 -3.06446e-10 5.03998e-09 2.40616e-09 -10.2786 0.731801 -0.0259123 -3.0644e-10 5.03998e-09 2.40616e-09 -2.22167 -0.733487 0.20892 -2.03217e-16 0.0 -3.88251e-19 8.61031 -10.191 17.0906 -0.143326 32.3227 1.04751 -24.7841 -26.7626 -41.0667 2.03217e-16 0.0 3.88251e-19 -5.83302 -9.55036 -16.614 0.18271 32.5163 -1.00384 19.5525 -23.91 35.6425
6.878999999999991 83.8691 -6.081799999999994 2.2267 79.6999 0.1135 -3.00905 8.5661 5.00059 -1.82644 0.37758 1.46512 9.12523 13.7938 3.40382 -7.05321 -22.125 5.01198 -0.0 0.0 0.0 -0.0 0.0 0.0 -6.37376e-14 4.94812e-12 3.24184e-13 82.7615 5.8221 -9.4314 -15.4657 -7.95225 28.8645 -0.554597 -20.1206 -2.95862 -9.12213e-10 -4.0688e-09 1.45887e-09 -1.6087e-09 -7.03404e-09 2.51728e-09 -9.12211e-10 -4.0688e-09 1.45886e-09 7.73091 5.47488 0.417314 -9.12214e-10 -4.0688e-09 1.45887e-09 2.90554 0.965183 0.102902 -9.12206e-10 -4.0688e-09 1.45887e-09 10.2786 0.731801 0.0259123 -9.12214e-10 -4.0688e-09 1.45887e-09 2.22167 -0.733487 -0.20892 -6.39889e-14 4.94814e-12 3.24022e-13 -84.4634 -14.2009 0.647423 13.8146 -6.61459 -25.4087 0.052352 6.3338 -0.894052 -6.98678e-10 5.4126e-09 2.37432e-09 -1.19479e-09 9.37777e-09 4.11357e-09 -6.98684e-10 5.4126e-09 2.37433e-09 -7.73091 5.47488 -0.417314 -6.98677e-10 5.4126e-09 2.37432e-09 -2.90554 0.965183 -0.102902 -6.98684e-10 5.4126e-09 2.37432e-09 -10.2786 0.731801 -0.0259123 -6.98675e-10 5.4126e-09 2.37431e-09 -2.22167 -0.733487 0.20892 -2.03217e-16 0.0 -3.88251e-19 8.43445 -10.1796 16.9256 -0.138511 32.1526 1.03925 -24.4359 -26.7057 -40.6468 2.03217e-16 0.0 3.88251e-19 -5.88411 -9.46089 -16.5259 0.175059 32.2086 -0.99213 19.3136 -23.7583 35.4085
6.881999999999977 83.8706 -6.111699999999999 2.6341 79.6843 0.5151 -2.96796 8.29541 4.78092 -1.72551 0.367849 1.40021 8.80555 13.255 3.27204 -6.87739 -21.3461 4.79269 -0.0 0.0 0.0 -0.0 0.0 0.0 -8.49594e-14 5.84199e-12 3.75901e-13 79.6452 5.51623 -9.05512 -15.0354 -7.73157 27.7748 -0.492496 -19.332 -2.82865 -8.18551e-10 -4.52702e-09 1.80014e-09 -1.4512e-09 -7.82702e-09 3.10862e-09 -8.18547e-10 -4.52702e-09 1.80012e-09 7.73091 5.47488 0.417314 -8.18551e-10 -4.52702e-09 1.80014e-09 2.90554 0.965183 0.102902 -8.18543e-10 -4.52702e-09 1.80014e-09 10.2786 0.731801 0.0259123 -8.18551e-10 -4.52702e-09 1.80014e-09 2.22167 -0.733487 -0.20892 -8.51372e-14 5.84201e-12 3.75714e-13 -81.2776 -13.5012 0.626593 13.4091 -6.41785 -24.4548 0.0480859 6.17647 -0.871537 -1.04856e-09 5.41911e-09 2.15786e-09 -1.80082e-09 9.39046e-09 3.74159e-09 -1.04856e-09 5.41911e-09 2.15787e-09 -7.73091 5.47488 -0.417314 -1.04856e-09 5.41911e-09 2.15786e-09 -2.90554 0.965183 -0.102902 -1.04856e-09 5.41911e-09 2.15786e-09 -10.2786 0.731801 -0.0259123 -1.04855e-09 5.41911e-09 2.15785e-09 -2.22167 -0.733487 0.20892 -2.03217e-16 0.0 -3.88251e-19 7.9721 -10.0211 16.251 -0.111941 31.114 0.990964 -22.7695 -26.2106 -38.7837 2.03217e-16 0.0 3.88251e-19 -5.71964 -9.17973 -15.9396 0.142493 30.9131 -0.939105 18.0178 -23.0784 33.9553
6.893999999999977 83.8726 -6.142399999999995 3.1136 79.6649 0.9856 -2.97643 8.1461 4.63992 -1.6475 0.365508 1.3578 8.60909 12.9252 3.19698 -6.78563 -20.8852 4.66505 -0.0 0.0 0.0 -0.0 0.0 0.0 -9.25542e-14 5.95906e-12 3.78585e-13 77.7623 5.33751 -8.82811 -14.7758 -7.59783 27.1285 -0.457677 -18.8711 -2.75348 -5.73193e-10 -4.42368e-09 1.86323e-09 -1.02641e-09 -7.65059e-09 3.2203e-09 -5.73189e-10 -4.42367e-09 1.86321e-09 7.73091 5.47488 0.417314 -5.73193e-10 -4.42368e-09 1.86322e-09 2.90554 0.965183 0.102902 -5.73185e-10 -4.42368e-09 1.86322e-09 10.2786 0.731801 0.0259123 -5.73194e-10 -4.42368e-09 1.86322e-09 2.22167 -0.733487 -0.20892 -9.26696e-14 5.95908e-12 3.78387e-13 -79.3371 -13.0277 0.618293 13.1608 -6.29684 -23.8803 0.0458587 6.10022 -0.860616 -1.1901e-09 4.89014e-09 1.74185e-09 -2.04793e-09 8.47485e-09 3.0229e-09 -1.1901e-09 4.89014e-09 1.74186e-09 -7.73091 5.47488 -0.417314 -1.1901e-09 4.89014e-09 1.74185e-09 -2.90554 0.965183 -0.102902 -1.1901e-09 4.89014e-09 1.74185e-09 -10.2786 0.731801 -0.0259123 -1.19009e-09 4.89014e-09 1.74184e-09 -2.22167 -0.733487 0.20892 -2.03217e-16 0.0 -3.88251e-19 7.66515 -9.93066 15.8446 -0.0971765 30.502 0.962961 -21.7841 -25.9046 -37.6438 2.03217e-16 0.0 3.88251e-19 -5.65196 -9.00162 -15.5808 0.124023 30.1219 -0.907815 17.2618 -22.6478 33.099
6.907999999999987 83.8742 -6.1706 3.5691 79.6367 1.4324 -3.06503 8.18763 4.61709 -1.60277 0.373515 1.34911 8.59708 12.897 3.20598 -6.82566 -20.8977 4.66998 -0.0 0.0 0.0 -0.0 0.0 0.0 -7.92066e-14 4.82434e-12 3.01058e-13 77.7231 5.34916 -8.8205 -14.7844 -7.60519 27.1461 -0.459314 -18.9035 -2.75856 -1.89578e-11 -3.35541e-09 1.45124e-09 -5.88454e-11 -5.80909e-09 2.51342e-09 -1.89559e-11 -3.35541e-09 1.45123e-09 7.73091 5.47488 0.417314 -1.89589e-11 -3.35541e-09 1.45124e-09 2.90554 0.965183 0.102902 -1.89501e-11 -3.35541e-09 1.45123e-09 10.2786 0.731801 0.0259123 -1.89585e-11 -3.35541e-09 1.45124e-09 2.22167 -0.733487 -0.20892 -7.92739e-14 4.82435e-12 3.00864e-13 -79.2671 -12.8887 0.622283 13.1564 -6.29569 -23.872 0.0465322 6.1443 -0.866885 -9.88666e-10 3.40424e-09 9.42677e-10 -1.70456e-09 5.90036e-09 1.63888e-09 -9.8867e-10 3.40424e-09 9.42685e-10 -7.73091 5.47488 -0.417314 -9.88665e-10 3.40424e-09 9.42679e-10 -2.90554 0.965183 -0.102902 -9.88672e-10 3.40424e-09 9.4268e-10 -10.2786 0.731801 -0.0259123 -9.8866e-10 3.40425e-09 9.42668e-10 -2.22167 -0.733487 0.20892 -2.03217e-16 0.0 -3.88251e-19 7.57872 -9.94323 15.8373 -0.0977487 30.534 0.963965 -21.7636 -25.965 -37.5614 2.03217e-16 0.0 3.88251e-19 -5.72925 -8.97562 -15.5621 0.123293 30.0838 -0.906697 17.2628 -22.6359 33.1162
